<svg width="72" height="72" viewBox="0 0 72 72" fill="none" xmlns="http://www.w3.org/2000/svg">
<rect width="72" height="72" rx="8" fill="#D91B24"/>
<path d="M60.7402 10C61.8013 10.0003 61.1752 11.342 60.4209 12.0889C60.0972 12.4093 59.8468 12.7859 59.8467 13.1846C59.8467 13.5833 60.0971 13.9607 60.4209 14.2812C61.1751 15.0281 61.8012 16.3688 60.7402 16.3691H50.04C51.4527 18.0882 52.1602 20.1424 52.1602 22.5322C52.1601 23.6773 51.9886 24.7655 51.6494 25.7979H60.8936C61.9552 25.7979 61.3287 27.1398 60.5742 27.8867C60.2506 28.2072 60 28.5838 60 28.9824C60 29.381 60.2506 29.7577 60.5742 30.0781C61.3287 30.825 61.9552 32.167 60.8936 32.167H46.3857C44.8008 33.1924 42.9205 34.0516 40.7451 34.7451C39.9642 34.9942 40.0602 36.9702 40.8594 37.1523C42.7554 37.5364 44.2671 38.1127 45.3945 38.8809C46.522 39.6491 47.4187 40.6579 48.085 41.9062C48.7512 43.1066 49.3151 44.6189 49.7764 46.4434L51.6982 53.5732C52.2619 55.7817 52.9027 57.3183 53.6201 58.1826C54.3889 58.9989 55.3632 59.4072 56.542 59.4072C57.2593 59.4072 57.9511 59.2393 58.6172 58.9033C59.202 58.5661 59.8465 58.0254 60.5498 57.2812C60.7076 57.1143 60.9775 57.1214 61.1211 57.3008C61.2304 57.4373 61.23 57.6322 61.1182 57.7666C59.8979 59.232 58.6542 60.3066 57.3877 60.9912C56.1064 61.6634 54.5682 62 52.7744 62C50.2634 61.9999 48.2904 61.3277 46.8555 59.9834C45.4205 58.639 44.3694 56.6466 43.7031 54.0059L41.8584 46.8037C41.2947 44.5952 40.6799 42.7462 40.0137 41.2578C39.3987 39.7695 38.4759 38.6413 37.2461 37.873C36.0925 37.0742 34.4478 36.6431 32.3125 36.5801C32.2197 36.5773 32.1266 36.5875 32.0361 36.6084C31.2644 36.7873 30.5151 36.944 29.7891 37.0801C29.0716 37.1761 28.4818 37.2246 28.0205 37.2246C27.457 37.2246 27.0213 37.1528 26.7139 37.0088C26.4064 36.8167 26.2529 36.5762 26.2529 36.2881C26.2529 35.6639 26.9445 35.3516 28.3281 35.3516C28.7893 35.3516 29.3275 35.4001 29.9424 35.4961C30.5656 35.541 31.2569 35.6064 32.0146 35.6934C32.1192 35.7053 32.2255 35.7029 32.3291 35.6846C35.7169 35.0859 38.3583 33.9134 40.2529 32.167H24.6748V54.876C24.6748 56.4427 24.8047 57.6423 25.0635 58.4746C25.3741 59.2579 25.917 59.8213 26.6934 60.1641C27.4698 60.5068 28.6346 60.7758 30.1875 60.9717L31.9736 61.1924V62C31.1972 61.951 30.2911 61.9268 29.2559 61.9268C28.2206 61.8778 27.0558 61.8535 25.7617 61.8535C24.4678 61.8046 23.0703 61.7793 21.5693 61.7793H20.0166C18.619 61.7793 17.2726 61.8045 15.9785 61.8535C14.7362 61.8535 13.6231 61.8778 12.6396 61.9268C11.6563 61.9268 10.7764 61.951 10 62V61.1924L11.6309 60.9717C13.8046 60.7269 15.2021 60.2373 15.8232 59.5029C16.4961 58.7195 16.833 57.1772 16.833 54.876V17.124C16.833 14.7739 16.4961 13.2315 15.8232 12.4971C15.2021 11.7627 13.8046 11.2731 11.6309 11.0283L10.0781 10.8076V10H60.7402ZM24.6875 16.3691C24.6802 16.6098 24.6748 16.8614 24.6748 17.124V25.7979H43.6445C43.837 24.7828 43.9345 23.6944 43.9346 22.5322C43.9346 20.1035 43.5245 18.0489 42.7051 16.3691H24.6875Z" fill="white"/>
</svg>
